<mxfile host="app.diagrams.net" modified="2024-10-13T14:40:41.414Z" agent="Mozilla/5.0 (Windows NT 10.0; Win64; x64; rv:109.0) Gecko/20100101 Firefox/117.0" etag="pNQunSclz8NN_vtPyjDs" version="21.5.0" type="device" pages="3">
  <diagram name="DB Desing" id="MJpysepauFG8fZo6-_u1">
    <mxGraphModel dx="1290" dy="538" grid="1" gridSize="10" guides="1" tooltips="1" connect="1" arrows="1" fold="1" page="1" pageScale="1" pageWidth="1600" pageHeight="900" math="0" shadow="0">
      <root>
        <mxCell id="0" />
        <mxCell id="1" parent="0" />
        <mxCell id="65i_w-p51jV-Cauc0QYP-1" value="&lt;div&gt;ID&lt;/div&gt;&lt;div&gt;Name&lt;/div&gt;&lt;div&gt;Email&lt;/div&gt;&lt;div&gt;Password&lt;/div&gt;&lt;div&gt;Age&lt;/div&gt;&lt;div&gt;Gender&lt;/div&gt;&lt;div&gt;AvatarURL&lt;br&gt;&lt;/div&gt;&lt;div&gt;&lt;br&gt;&lt;/div&gt;" style="whiteSpace=wrap;html=1;aspect=fixed;" vertex="1" parent="1">
          <mxGeometry x="200" y="230" width="130" height="130" as="geometry" />
        </mxCell>
        <mxCell id="65i_w-p51jV-Cauc0QYP-2" value="User" style="text;html=1;strokeColor=none;fillColor=none;align=center;verticalAlign=middle;whiteSpace=wrap;rounded=0;" vertex="1" parent="1">
          <mxGeometry x="235" y="190" width="60" height="30" as="geometry" />
        </mxCell>
        <mxCell id="65i_w-p51jV-Cauc0QYP-3" value="&lt;div&gt;ID&lt;/div&gt;&lt;div&gt;Description&lt;/div&gt;&lt;div&gt;ImagesURL&lt;br&gt;&lt;/div&gt;" style="whiteSpace=wrap;html=1;aspect=fixed;" vertex="1" parent="1">
          <mxGeometry x="450" y="230" width="130" height="130" as="geometry" />
        </mxCell>
        <mxCell id="65i_w-p51jV-Cauc0QYP-4" value="Post" style="text;html=1;strokeColor=none;fillColor=none;align=center;verticalAlign=middle;whiteSpace=wrap;rounded=0;" vertex="1" parent="1">
          <mxGeometry x="470" y="190" width="60" height="30" as="geometry" />
        </mxCell>
        <mxCell id="65i_w-p51jV-Cauc0QYP-5" value="&lt;div&gt;ID&lt;/div&gt;&lt;div&gt;User_Id&lt;/div&gt;&lt;div&gt;Post_Id&lt;/div&gt;&lt;div&gt;&lt;br&gt;&lt;/div&gt;" style="whiteSpace=wrap;html=1;aspect=fixed;" vertex="1" parent="1">
          <mxGeometry x="690" y="230" width="130" height="130" as="geometry" />
        </mxCell>
        <mxCell id="65i_w-p51jV-Cauc0QYP-6" value="Post User" style="text;html=1;strokeColor=none;fillColor=none;align=center;verticalAlign=middle;whiteSpace=wrap;rounded=0;" vertex="1" parent="1">
          <mxGeometry x="725" y="190" width="60" height="30" as="geometry" />
        </mxCell>
        <mxCell id="65i_w-p51jV-Cauc0QYP-7" value="&lt;div&gt;ID&lt;/div&gt;&lt;div&gt;UserId&lt;/div&gt;&lt;div&gt;FollowersUserId&lt;/div&gt;&lt;div&gt;FollowingUserId&lt;br&gt;&lt;/div&gt;" style="whiteSpace=wrap;html=1;aspect=fixed;" vertex="1" parent="1">
          <mxGeometry x="910" y="230" width="130" height="130" as="geometry" />
        </mxCell>
        <mxCell id="65i_w-p51jV-Cauc0QYP-8" value="UserCircle" style="text;html=1;strokeColor=none;fillColor=none;align=center;verticalAlign=middle;whiteSpace=wrap;rounded=0;" vertex="1" parent="1">
          <mxGeometry x="930" y="190" width="60" height="30" as="geometry" />
        </mxCell>
        <mxCell id="65i_w-p51jV-Cauc0QYP-9" value="&lt;font style=&quot;font-size: 18px;&quot;&gt;&lt;b&gt;Twitter News Feed DB Design&lt;br&gt;&lt;/b&gt;&lt;/font&gt;" style="text;html=1;strokeColor=none;fillColor=none;align=center;verticalAlign=middle;whiteSpace=wrap;rounded=0;" vertex="1" parent="1">
          <mxGeometry x="440" y="80" width="290" height="30" as="geometry" />
        </mxCell>
      </root>
    </mxGraphModel>
  </diagram>
  <diagram id="kegCzG9o4uI-6dd-G-Y4" name="Create Post">
    <mxGraphModel dx="1290" dy="538" grid="1" gridSize="10" guides="1" tooltips="1" connect="1" arrows="1" fold="1" page="1" pageScale="1" pageWidth="1600" pageHeight="900" math="0" shadow="0">
      <root>
        <mxCell id="0" />
        <mxCell id="1" parent="0" />
        <mxCell id="5cWpvcCXFEn47oTJgzpV-10" value="" style="shape=step;perimeter=stepPerimeter;whiteSpace=wrap;html=1;fixedSize=1;" vertex="1" parent="1">
          <mxGeometry x="270" y="250" width="550" height="200" as="geometry" />
        </mxCell>
        <mxCell id="4g1zjB0md1nV6DUpp7NR-1" value="&lt;b&gt;&lt;font style=&quot;font-size: 18px;&quot;&gt;Create Post&lt;/font&gt;&lt;br&gt;&lt;/b&gt;" style="text;html=1;strokeColor=none;fillColor=none;align=center;verticalAlign=middle;whiteSpace=wrap;rounded=0;" vertex="1" parent="1">
          <mxGeometry x="470" y="40" width="220" height="30" as="geometry" />
        </mxCell>
        <mxCell id="5cWpvcCXFEn47oTJgzpV-1" value="Actor" style="shape=umlActor;verticalLabelPosition=bottom;verticalAlign=top;html=1;outlineConnect=0;" vertex="1" parent="1">
          <mxGeometry x="70" y="280" width="30" height="60" as="geometry" />
        </mxCell>
        <mxCell id="5cWpvcCXFEn47oTJgzpV-2" value="&lt;div&gt;payload - {&lt;/div&gt;&lt;div&gt;description: string&lt;/div&gt;&lt;div&gt;imagesURL?: string&lt;br&gt;&lt;/div&gt;&lt;div&gt;}&lt;/div&gt;&lt;div&gt;&lt;br&gt;&lt;/div&gt;&lt;div&gt;Headers: {&lt;/div&gt;&lt;div&gt;Authorization: jwt token&lt;br&gt;&lt;/div&gt;&lt;div&gt;}&lt;br&gt;&lt;/div&gt;" style="rounded=1;whiteSpace=wrap;html=1;" vertex="1" parent="1">
          <mxGeometry x="580" y="280" width="160" height="140" as="geometry" />
        </mxCell>
        <mxCell id="5cWpvcCXFEn47oTJgzpV-3" value="Post" style="shape=datastore;whiteSpace=wrap;html=1;" vertex="1" parent="1">
          <mxGeometry x="1220" y="230" width="70" height="60" as="geometry" />
        </mxCell>
        <mxCell id="5cWpvcCXFEn47oTJgzpV-4" value="Post_User" style="shape=datastore;whiteSpace=wrap;html=1;" vertex="1" parent="1">
          <mxGeometry x="1240" y="390" width="60" height="60" as="geometry" />
        </mxCell>
        <mxCell id="5cWpvcCXFEn47oTJgzpV-5" value="Images" style="strokeWidth=2;html=1;shape=mxgraph.flowchart.multi-document;whiteSpace=wrap;" vertex="1" parent="1">
          <mxGeometry x="320" y="280" width="88" height="60" as="geometry" />
        </mxCell>
        <mxCell id="5cWpvcCXFEn47oTJgzpV-7" value="Description" style="ellipse;whiteSpace=wrap;html=1;align=center;" vertex="1" parent="1">
          <mxGeometry x="314" y="380" width="100" height="40" as="geometry" />
        </mxCell>
        <mxCell id="5cWpvcCXFEn47oTJgzpV-8" value="Asset Storage" style="shape=datastore;whiteSpace=wrap;html=1;" vertex="1" parent="1">
          <mxGeometry x="490" y="100" width="70" height="60" as="geometry" />
        </mxCell>
        <mxCell id="5cWpvcCXFEn47oTJgzpV-9" value="" style="endArrow=classic;html=1;rounded=0;" edge="1" parent="1" target="5cWpvcCXFEn47oTJgzpV-10">
          <mxGeometry width="50" height="50" relative="1" as="geometry">
            <mxPoint x="110" y="320" as="sourcePoint" />
            <mxPoint x="230" y="315" as="targetPoint" />
            <Array as="points">
              <mxPoint x="130" y="315" />
            </Array>
          </mxGeometry>
        </mxCell>
        <mxCell id="5cWpvcCXFEn47oTJgzpV-13" value="" style="endArrow=classic;html=1;rounded=0;" edge="1" parent="1">
          <mxGeometry width="50" height="50" relative="1" as="geometry">
            <mxPoint x="354" y="270" as="sourcePoint" />
            <mxPoint x="480" y="130" as="targetPoint" />
            <Array as="points">
              <mxPoint x="340" y="130" />
            </Array>
          </mxGeometry>
        </mxCell>
        <mxCell id="5cWpvcCXFEn47oTJgzpV-14" value="" style="endArrow=classic;html=1;rounded=0;" edge="1" parent="1" target="5cWpvcCXFEn47oTJgzpV-2">
          <mxGeometry width="50" height="50" relative="1" as="geometry">
            <mxPoint x="460" y="150" as="sourcePoint" />
            <mxPoint x="390.25" y="270" as="targetPoint" />
            <Array as="points">
              <mxPoint x="370" y="150" />
            </Array>
          </mxGeometry>
        </mxCell>
        <mxCell id="5cWpvcCXFEn47oTJgzpV-15" value="" style="endArrow=classic;html=1;rounded=0;" edge="1" parent="1">
          <mxGeometry width="50" height="50" relative="1" as="geometry">
            <mxPoint x="400" y="380" as="sourcePoint" />
            <mxPoint x="560" y="340" as="targetPoint" />
            <Array as="points">
              <mxPoint x="400" y="380" />
            </Array>
          </mxGeometry>
        </mxCell>
        <mxCell id="5cWpvcCXFEn47oTJgzpV-16" value="&lt;div&gt;Post&lt;/div&gt;&lt;div&gt;Services&lt;br&gt;&lt;/div&gt;" style="shape=cube;whiteSpace=wrap;html=1;boundedLbl=1;backgroundOutline=1;darkOpacity=0.05;darkOpacity2=0.1;" vertex="1" parent="1">
          <mxGeometry x="940" y="310" width="120" height="80" as="geometry" />
        </mxCell>
        <mxCell id="5cWpvcCXFEn47oTJgzpV-18" value="" style="endArrow=classic;html=1;rounded=0;exitX=1;exitY=0.5;exitDx=0;exitDy=0;entryX=0.033;entryY=0.588;entryDx=0;entryDy=0;entryPerimeter=0;" edge="1" parent="1" source="5cWpvcCXFEn47oTJgzpV-10" target="5cWpvcCXFEn47oTJgzpV-16">
          <mxGeometry width="50" height="50" relative="1" as="geometry">
            <mxPoint x="860" y="390" as="sourcePoint" />
            <mxPoint x="910" y="340" as="targetPoint" />
          </mxGeometry>
        </mxCell>
        <mxCell id="5cWpvcCXFEn47oTJgzpV-19" value="" style="endArrow=classic;html=1;rounded=0;entryX=0.343;entryY=0.917;entryDx=0;entryDy=0;entryPerimeter=0;exitX=1.058;exitY=0.413;exitDx=0;exitDy=0;exitPerimeter=0;" edge="1" parent="1" source="5cWpvcCXFEn47oTJgzpV-16" target="5cWpvcCXFEn47oTJgzpV-3">
          <mxGeometry width="50" height="50" relative="1" as="geometry">
            <mxPoint x="1070" y="340" as="sourcePoint" />
            <mxPoint x="1120" y="290" as="targetPoint" />
          </mxGeometry>
        </mxCell>
        <mxCell id="5cWpvcCXFEn47oTJgzpV-20" value="" style="endArrow=classic;html=1;rounded=0;entryX=-0.133;entryY=0.267;entryDx=0;entryDy=0;entryPerimeter=0;" edge="1" parent="1" source="5cWpvcCXFEn47oTJgzpV-16" target="5cWpvcCXFEn47oTJgzpV-4">
          <mxGeometry width="50" height="50" relative="1" as="geometry">
            <mxPoint x="1060" y="400" as="sourcePoint" />
            <mxPoint x="1130.7106781186549" y="350" as="targetPoint" />
          </mxGeometry>
        </mxCell>
        <mxCell id="5cWpvcCXFEn47oTJgzpV-21" value="Files" style="text;html=1;strokeColor=none;fillColor=none;align=center;verticalAlign=middle;whiteSpace=wrap;rounded=0;" vertex="1" parent="1">
          <mxGeometry x="334" y="100" width="60" height="30" as="geometry" />
        </mxCell>
        <mxCell id="5cWpvcCXFEn47oTJgzpV-22" value="File url" style="text;html=1;strokeColor=none;fillColor=none;align=center;verticalAlign=middle;whiteSpace=wrap;rounded=0;rotation=45;" vertex="1" parent="1">
          <mxGeometry x="480" y="190" width="60" height="30" as="geometry" />
        </mxCell>
        <mxCell id="5cWpvcCXFEn47oTJgzpV-25" value="&lt;b&gt;&lt;font style=&quot;font-size: 14px;&quot;&gt;POST:&amp;nbsp; /post/create&lt;/font&gt;&lt;/b&gt;" style="text;html=1;strokeColor=none;fillColor=none;align=center;verticalAlign=middle;whiteSpace=wrap;rounded=0;" vertex="1" parent="1">
          <mxGeometry x="930" y="405" width="160" height="30" as="geometry" />
        </mxCell>
      </root>
    </mxGraphModel>
  </diagram>
  <diagram name="GET POSTS" id="C0RPdw03GRzauEc0M8Gc">
    <mxGraphModel dx="1290" dy="538" grid="1" gridSize="10" guides="1" tooltips="1" connect="1" arrows="1" fold="1" page="1" pageScale="1" pageWidth="1600" pageHeight="900" math="0" shadow="0">
      <root>
        <mxCell id="6-2UYHU1hyBy-FLFOS47-0" />
        <mxCell id="6-2UYHU1hyBy-FLFOS47-1" parent="6-2UYHU1hyBy-FLFOS47-0" />
        <mxCell id="6-2UYHU1hyBy-FLFOS47-3" value="&lt;b&gt;GET Posts [Feeds]&lt;br&gt;&lt;/b&gt;" style="text;html=1;strokeColor=none;fillColor=none;align=center;verticalAlign=middle;whiteSpace=wrap;rounded=0;" vertex="1" parent="6-2UYHU1hyBy-FLFOS47-1">
          <mxGeometry x="470" y="40" width="220" height="30" as="geometry" />
        </mxCell>
        <mxCell id="6-2UYHU1hyBy-FLFOS47-4" value="Actor" style="shape=umlActor;verticalLabelPosition=bottom;verticalAlign=top;html=1;outlineConnect=0;" vertex="1" parent="6-2UYHU1hyBy-FLFOS47-1">
          <mxGeometry x="70" y="280" width="30" height="60" as="geometry" />
        </mxCell>
        <mxCell id="6-2UYHU1hyBy-FLFOS47-6" value="Post" style="shape=datastore;whiteSpace=wrap;html=1;" vertex="1" parent="6-2UYHU1hyBy-FLFOS47-1">
          <mxGeometry x="980" y="150" width="70" height="80" as="geometry" />
        </mxCell>
        <mxCell id="6-2UYHU1hyBy-FLFOS47-7" value="Post_User" style="shape=datastore;whiteSpace=wrap;html=1;" vertex="1" parent="6-2UYHU1hyBy-FLFOS47-1">
          <mxGeometry x="960" y="275" width="80" height="90" as="geometry" />
        </mxCell>
        <mxCell id="6-2UYHU1hyBy-FLFOS47-15" value="&lt;div&gt;Feed&lt;br&gt;&lt;/div&gt;&lt;div&gt;Services&lt;br&gt;&lt;/div&gt;" style="shape=cube;whiteSpace=wrap;html=1;boundedLbl=1;backgroundOutline=1;darkOpacity=0.05;darkOpacity2=0.1;" vertex="1" parent="6-2UYHU1hyBy-FLFOS47-1">
          <mxGeometry x="440" y="280" width="120" height="80" as="geometry" />
        </mxCell>
        <mxCell id="6-2UYHU1hyBy-FLFOS47-16" value="" style="endArrow=classic;html=1;rounded=0;entryX=0.033;entryY=0.588;entryDx=0;entryDy=0;entryPerimeter=0;" edge="1" parent="6-2UYHU1hyBy-FLFOS47-1" target="6-2UYHU1hyBy-FLFOS47-15">
          <mxGeometry width="50" height="50" relative="1" as="geometry">
            <mxPoint x="150" y="310" as="sourcePoint" />
            <mxPoint x="410" y="310" as="targetPoint" />
          </mxGeometry>
        </mxCell>
        <mxCell id="6-2UYHU1hyBy-FLFOS47-21" value="&lt;b&gt;&lt;font style=&quot;font-size: 14px;&quot;&gt;GET:&amp;nbsp; /posts&lt;/font&gt;&lt;/b&gt;" style="text;html=1;strokeColor=none;fillColor=none;align=center;verticalAlign=middle;whiteSpace=wrap;rounded=0;" vertex="1" parent="6-2UYHU1hyBy-FLFOS47-1">
          <mxGeometry x="430" y="375" width="160" height="30" as="geometry" />
        </mxCell>
        <mxCell id="KhtFjae2L3di1vedN9ML-1" value="User Circle" style="shape=datastore;whiteSpace=wrap;html=1;" vertex="1" parent="6-2UYHU1hyBy-FLFOS47-1">
          <mxGeometry x="730" y="440" width="80" height="90" as="geometry" />
        </mxCell>
        <mxCell id="KhtFjae2L3di1vedN9ML-2" value="&lt;div&gt;Post&amp;nbsp;&lt;/div&gt;&lt;div&gt;Reorder&lt;/div&gt;" style="shape=cube;whiteSpace=wrap;html=1;boundedLbl=1;backgroundOutline=1;darkOpacity=0.05;darkOpacity2=0.1;" vertex="1" parent="6-2UYHU1hyBy-FLFOS47-1">
          <mxGeometry x="700" y="285" width="120" height="80" as="geometry" />
        </mxCell>
        <mxCell id="KhtFjae2L3di1vedN9ML-3" value="" style="endArrow=classic;html=1;rounded=0;" edge="1" parent="6-2UYHU1hyBy-FLFOS47-1">
          <mxGeometry width="50" height="50" relative="1" as="geometry">
            <mxPoint x="570" y="320" as="sourcePoint" />
            <mxPoint x="690" y="320" as="targetPoint" />
          </mxGeometry>
        </mxCell>
        <mxCell id="KhtFjae2L3di1vedN9ML-4" value="" style="endArrow=classic;html=1;rounded=0;" edge="1" parent="6-2UYHU1hyBy-FLFOS47-1">
          <mxGeometry width="50" height="50" relative="1" as="geometry">
            <mxPoint x="830" y="340" as="sourcePoint" />
            <mxPoint x="950" y="340" as="targetPoint" />
          </mxGeometry>
        </mxCell>
        <mxCell id="KhtFjae2L3di1vedN9ML-6" value="" style="endArrow=classic;startArrow=classic;html=1;rounded=0;entryX=0.517;entryY=1;entryDx=0;entryDy=0;entryPerimeter=0;" edge="1" parent="6-2UYHU1hyBy-FLFOS47-1" target="KhtFjae2L3di1vedN9ML-2">
          <mxGeometry width="50" height="50" relative="1" as="geometry">
            <mxPoint x="760" y="450" as="sourcePoint" />
            <mxPoint x="810" y="400" as="targetPoint" />
          </mxGeometry>
        </mxCell>
        <mxCell id="KhtFjae2L3di1vedN9ML-7" value="" style="endArrow=classic;html=1;rounded=0;entryX=0;entryY=0.7;entryDx=0;entryDy=0;" edge="1" parent="6-2UYHU1hyBy-FLFOS47-1" target="6-2UYHU1hyBy-FLFOS47-6">
          <mxGeometry width="50" height="50" relative="1" as="geometry">
            <mxPoint x="800" y="290" as="sourcePoint" />
            <mxPoint x="850" y="240" as="targetPoint" />
          </mxGeometry>
        </mxCell>
      </root>
    </mxGraphModel>
  </diagram>
</mxfile>
